<svg width="30" height="30" viewBox="0 0 30 30" fill="none" xmlns="http://www.w3.org/2000/svg">
<circle cx="9.6" cy="9.6" r="8.4" transform="matrix(-1 0 0 1 24.6006 5.40002)" stroke="url(#paint0_linear_129_1149)" stroke-width="2.4"/>
<g filter="url(#filter0_i_129_1149)">
<path d="M5.40059 15C5.40059 13.7393 5.6489 12.491 6.13134 11.3263C6.61379 10.1615 7.32092 9.10324 8.21236 8.2118C9.1038 7.32036 10.1621 6.61323 11.3268 6.13078C12.4916 5.64834 13.7399 5.40002 15.0006 5.40002C16.2613 5.40002 17.5096 5.64834 18.6743 6.13078C19.8391 6.61323 20.8974 7.32036 21.7888 8.2118C22.6803 9.10324 23.3874 10.1615 23.8698 11.3263C24.3523 12.491 24.6006 13.7393 24.6006 15L19.2246 15C19.2246 14.4453 19.1153 13.896 18.9031 13.3836C18.6908 12.8711 18.3796 12.4054 17.9874 12.0132C17.5952 11.621 17.1295 11.3098 16.617 11.0976C16.1046 10.8853 15.5553 10.776 15.0006 10.776C14.4459 10.776 13.8966 10.8853 13.3841 11.0976C12.8717 11.3098 12.406 11.621 12.0138 12.0132C11.6215 12.4054 11.3104 12.8711 11.0981 13.3836C10.8858 13.896 10.7766 14.4453 10.7766 15H5.40059Z" fill="url(#paint1_linear_129_1149)"/>
</g>
<g filter="url(#filter1_i_129_1149)">
<circle cx="15" cy="15" r="4.8" transform="rotate(-180 15 15)" stroke="url(#paint2_linear_129_1149)" stroke-width="2.4"/>
</g>
<g filter="url(#filter2_ii_129_1149)">
<path d="M21 15C21 15.7879 20.8448 16.5681 20.5433 17.2961C20.2417 18.0241 19.7998 18.6855 19.2426 19.2426C18.6855 19.7998 18.0241 20.2417 17.2961 20.5433C16.5681 20.8448 15.7879 21 15 21C14.2121 21 13.4319 20.8448 12.7039 20.5433C11.9759 20.2417 11.3145 19.7998 10.7574 19.2426C10.2002 18.6855 9.75825 18.0241 9.45672 17.2961C9.15519 16.5681 9 15.7879 9 15L12.36 15C12.36 15.3467 12.4283 15.69 12.561 16.0103C12.6936 16.3306 12.8881 16.6216 13.1332 16.8668C13.3784 17.1119 13.6694 17.3064 13.9897 17.439C14.31 17.5717 14.6533 17.64 15 17.64C15.3467 17.64 15.69 17.5717 16.0103 17.439C16.3306 17.3064 16.6216 17.1119 16.8668 16.8668C17.1119 16.6216 17.3064 16.3306 17.439 16.0103C17.5717 15.69 17.64 15.3467 17.64 15H21Z" fill="url(#paint3_linear_129_1149)"/>
</g>
<defs>
<filter id="filter0_i_129_1149" x="5.40039" y="5.40002" width="19.2002" height="10.8" filterUnits="userSpaceOnUse" color-interpolation-filters="sRGB">
<feFlood flood-opacity="0" result="BackgroundImageFix"/>
<feBlend mode="normal" in="SourceGraphic" in2="BackgroundImageFix" result="shape"/>
<feColorMatrix in="SourceAlpha" type="matrix" values="0 0 0 0 0 0 0 0 0 0 0 0 0 0 0 0 0 0 127 0" result="hardAlpha"/>
<feOffset dy="1.2"/>
<feGaussianBlur stdDeviation="0.75"/>
<feComposite in2="hardAlpha" operator="arithmetic" k2="-1" k3="1"/>
<feColorMatrix type="matrix" values="0 0 0 0 1 0 0 0 0 1 0 0 0 0 1 0 0 0 0.25 0"/>
<feBlend mode="normal" in2="shape" result="effect1_innerShadow_129_1149"/>
</filter>
<filter id="filter1_i_129_1149" x="9" y="9" width="12" height="13.2" filterUnits="userSpaceOnUse" color-interpolation-filters="sRGB">
<feFlood flood-opacity="0" result="BackgroundImageFix"/>
<feBlend mode="normal" in="SourceGraphic" in2="BackgroundImageFix" result="shape"/>
<feColorMatrix in="SourceAlpha" type="matrix" values="0 0 0 0 0 0 0 0 0 0 0 0 0 0 0 0 0 0 127 0" result="hardAlpha"/>
<feOffset dy="1.2"/>
<feGaussianBlur stdDeviation="0.6"/>
<feComposite in2="hardAlpha" operator="arithmetic" k2="-1" k3="1"/>
<feColorMatrix type="matrix" values="0 0 0 0 0 0 0 0 0 0 0 0 0 0 0 0 0 0 0.25 0"/>
<feBlend mode="normal" in2="shape" result="effect1_innerShadow_129_1149"/>
</filter>
<filter id="filter2_ii_129_1149" x="9" y="13.8" width="12" height="8.4" filterUnits="userSpaceOnUse" color-interpolation-filters="sRGB">
<feFlood flood-opacity="0" result="BackgroundImageFix"/>
<feBlend mode="normal" in="SourceGraphic" in2="BackgroundImageFix" result="shape"/>
<feColorMatrix in="SourceAlpha" type="matrix" values="0 0 0 0 0 0 0 0 0 0 0 0 0 0 0 0 0 0 127 0" result="hardAlpha"/>
<feOffset dy="-1.2"/>
<feGaussianBlur stdDeviation="0.9"/>
<feComposite in2="hardAlpha" operator="arithmetic" k2="-1" k3="1"/>
<feColorMatrix type="matrix" values="0 0 0 0 1 0 0 0 0 1 0 0 0 0 1 0 0 0 0.25 0"/>
<feBlend mode="normal" in2="shape" result="effect1_innerShadow_129_1149"/>
<feColorMatrix in="SourceAlpha" type="matrix" values="0 0 0 0 0 0 0 0 0 0 0 0 0 0 0 0 0 0 127 0" result="hardAlpha"/>
<feOffset dy="1.2"/>
<feGaussianBlur stdDeviation="0.9"/>
<feComposite in2="hardAlpha" operator="arithmetic" k2="-1" k3="1"/>
<feColorMatrix type="matrix" values="0 0 0 0 0 0 0 0 0 0 0 0 0 0 0 0 0 0 0.2 0"/>
<feBlend mode="normal" in2="effect1_innerShadow_129_1149" result="effect2_innerShadow_129_1149"/>
</filter>
<linearGradient id="paint0_linear_129_1149" x1="-3" y1="9.6" x2="20.85" y2="19.2" gradientUnits="userSpaceOnUse">
<stop stop-color="white"/>
<stop offset="1" stop-color="#0E0E0E"/>
</linearGradient>
<linearGradient id="paint1_linear_129_1149" x1="9.00059" y1="6.60002" x2="26.4006" y2="18.75" gradientUnits="userSpaceOnUse">
<stop stop-color="white"/>
<stop offset="1" stop-color="#1B1B1B"/>
</linearGradient>
<linearGradient id="paint2_linear_129_1149" x1="9" y1="15.3" x2="21.75" y2="19.65" gradientUnits="userSpaceOnUse">
<stop stop-color="white"/>
<stop offset="1" stop-color="#0E0E0E"/>
</linearGradient>
<linearGradient id="paint3_linear_129_1149" x1="9.6" y1="18.45" x2="19.2" y2="13.05" gradientUnits="userSpaceOnUse">
<stop stop-color="white"/>
<stop offset="1" stop-color="#313131"/>
</linearGradient>
</defs>
</svg>
